The Descendants 2011 SCR XViD DTRG
 
http://www.imdb.com/title/tt1033575/

Video
ID : 0
Format : MPEG-4 Visual
Format profile : Advanced Simple@L5
Format settings, BVOP : 1
Format settings, QPel : No
Format settings, GMC : No warppoints
Format settings, Matrix : Default (H.263)
Muxing mode : Packed bitstream
Codec ID : XVID
Codec ID/Hint : XviD
Duration : 2h 0mn
Bit rate : 984 Kbps
Width : 720 pixels
Height : 304 pixels
Display aspect ratio : 2.35:1
Frame rate : 23.976 fps
Original frame rate : 25.000 fps
Color space : YUV
Chroma subsampling : 4:2:0
Bit depth : 8 bits
Scan type : Progressive
Compression mode : Lossy
Bits/(Pixel*Frame) : 0.188
Stream size : 848 MiB (88%)
Writing library : XviD 64

Audio
ID : 1
Format : MPEG Audio
Format version : Version 1
Format profile : Layer 3
Mode : Joint stereo
Codec ID : 55
Codec ID/Hint : MP3
Duration : 1h 55mn
Bit rate mode : Constant
Bit rate : 128 Kbps
Channel(s) : 2 channels
Sampling rate : 48.0 KHz
Compression mode : Lossy
Delay relative to video : 500ms
Stream size : 106 MiB (11%)
Alignment : Split accross interleaves
Interleave, duration : 43 ms (1.04 video frame)
Interleave, preload duration : 500 ms

Storyline

With his wife Elizabeth on life support after a boating accident, Hawaiian land baron Matt King takes his daughters on a trip from Oahu to Kauai to confront the young real estate broker, who was having an affair with Elizabeth before her misfortune.

Source Used

ZOMBIES (1ST Release) ..........ty ...................................so yeah 
yeah re-encode

Corrected the AR and sorted out the obvious sync issue..............

Filtered the vid not loads didnt have time but thats blah blah ...........left audio untouched


For those that got confused by ZOMBIES 1ST release


Drop the file into vdub

Change frame rate to 23.976fps

Audio 500ms

Direct stream copy

Save

Easy peasy !

Greetz to EMBER,ETRG,BHRG,26k,CreWSaDe,RemixHD,LEGiTiMATE.......and maybe many more 


Poster:

 
http://i.imgur.com/xoxhc.jpg


Screens:

 
http://i.imgur.com/73Qcv.png

 
http://i.imgur.com/X8VEq.png

 
http://i.imgur.com/Uc6RX.png


ENJOY!